<svg xmlns="http://www.w3.org/2000/svg" data-name="Camada 1" viewBox="0 0 100 100"><path d="M50 0a50 50 0 1 0 50 50A50.06 50.06 0 0 0 50 0Zm43.89 47h-14a29.75 29.75 0 0 0-7.52-17l9.47-10.37A43.83 43.83 0 0 1 93.89 47ZM74 50a22.8 22.8 0 0 1-.19 3A24.06 24.06 0 0 1 53 73.81a23.78 23.78 0 0 1-6 0 23.67 23.67 0 0 1-10.82-4.21 23.95 23.95 0 0 1-10-16.6 23.78 23.78 0 0 1 0-6A24.06 24.06 0 0 1 47 26.19a23.78 23.78 0 0 1 6 0 23.67 23.67 0 0 1 10.82 4.21 23.95 23.95 0 0 1 10 16.6 22.8 22.8 0 0 1 .18 3Zm-6.11-24.06A29.65 29.65 0 0 0 53 20.16v-14a43.66 43.66 0 0 1 24.35 9.45ZM47 6.11v14.05a29.65 29.65 0 0 0-14.89 5.78l-9.46-10.38A43.66 43.66 0 0 1 47 6.11Zm-28.79 13.5L27.68 30a29.75 29.75 0 0 0-7.52 17h-14a43.83 43.83 0 0 1 12.05-27.39ZM6.11 53h14.05a29.75 29.75 0 0 0 7.52 17l-9.47 10.39A43.83 43.83 0 0 1 6.11 53Zm26 21.06A29.65 29.65 0 0 0 47 79.84v14a43.66 43.66 0 0 1-24.35-9.45ZM53 93.89v-14a29.65 29.65 0 0 0 14.89-5.78l9.46 10.38A43.66 43.66 0 0 1 53 93.89Zm28.79-13.5L72.32 70a29.75 29.75 0 0 0 7.52-17h14a43.83 43.83 0 0 1-12.05 27.39Z"/></svg>